<mxfile host="app.diagrams.net" modified="2023-11-03T10:33:19.666Z" agent="Mozilla/5.0 (Windows NT 10.0; Win64; x64) AppleWebKit/537.36 (KHTML, like Gecko) Chrome/116.0.0.0 Safari/537.36 OPR/102.0.0.0" etag="OXkpv6Y7XB1CmiWRACTr" version="22.0.8" type="device">
  <diagram name="Страница — 1" id="oxzbA5n8rJRtIyU1qTe0">
    <mxGraphModel dx="1548" dy="886" grid="1" gridSize="10" guides="1" tooltips="1" connect="1" arrows="1" fold="1" page="1" pageScale="1" pageWidth="1169" pageHeight="1654" math="0" shadow="0">
      <root>
        <mxCell id="0" />
        <mxCell id="1" parent="0" />
        <mxCell id="4M073sMEAIMgYrIw7gIp-18" value="" style="endArrow=classic;html=1;rounded=0;" edge="1" parent="1">
          <mxGeometry width="50" height="50" relative="1" as="geometry">
            <mxPoint x="240" y="747" as="sourcePoint" />
            <mxPoint x="240" y="224.00000762939453" as="targetPoint" />
          </mxGeometry>
        </mxCell>
        <mxCell id="4M073sMEAIMgYrIw7gIp-19" value="" style="endArrow=classic;html=1;rounded=0;" edge="1" parent="1">
          <mxGeometry width="50" height="50" relative="1" as="geometry">
            <mxPoint x="240" y="747" as="sourcePoint" />
            <mxPoint x="1064.9230018028845" y="747" as="targetPoint" />
          </mxGeometry>
        </mxCell>
        <mxCell id="4M073sMEAIMgYrIw7gIp-20" value="&lt;font style=&quot;font-size: 24px;&quot;&gt;Разработчик&lt;br style=&quot;border-color: var(--border-color);&quot;&gt;31&lt;br&gt;&lt;/font&gt;" style="rounded=0;whiteSpace=wrap;html=1;" vertex="1" parent="1">
          <mxGeometry x="90" y="597" width="150" height="90" as="geometry" />
        </mxCell>
        <mxCell id="4M073sMEAIMgYrIw7gIp-21" value="&lt;span style=&quot;font-size: 24px;&quot;&gt;Разработчик&lt;br&gt;19&lt;br&gt;&lt;/span&gt;" style="rounded=0;whiteSpace=wrap;html=1;" vertex="1" parent="1">
          <mxGeometry x="90" y="457" width="150" height="90" as="geometry" />
        </mxCell>
        <mxCell id="4M073sMEAIMgYrIw7gIp-22" value="&lt;font style=&quot;font-size: 24px;&quot;&gt;Разработчик&lt;br style=&quot;border-color: var(--border-color);&quot;&gt;9&lt;br&gt;&lt;/font&gt;" style="rounded=0;whiteSpace=wrap;html=1;" vertex="1" parent="1">
          <mxGeometry x="90" y="317" width="150" height="90" as="geometry" />
        </mxCell>
        <mxCell id="4M073sMEAIMgYrIw7gIp-23" value="&lt;font style=&quot;font-size: 24px;&quot;&gt;Разработчики&lt;/font&gt;" style="text;html=1;strokeColor=none;fillColor=none;align=center;verticalAlign=middle;whiteSpace=wrap;rounded=0;" vertex="1" parent="1">
          <mxGeometry x="80" y="167" width="170" height="60" as="geometry" />
        </mxCell>
        <mxCell id="4M073sMEAIMgYrIw7gIp-24" value="&lt;font style=&quot;font-size: 24px;&quot;&gt;Время в днях&lt;/font&gt;" style="text;html=1;strokeColor=none;fillColor=none;align=center;verticalAlign=middle;whiteSpace=wrap;rounded=0;" vertex="1" parent="1">
          <mxGeometry x="910" y="767" width="170" height="60" as="geometry" />
        </mxCell>
        <mxCell id="4M073sMEAIMgYrIw7gIp-25" value="&lt;font style=&quot;font-size: 24px;&quot;&gt;БД&lt;br&gt;6200 руб.&lt;br&gt;&lt;/font&gt;" style="rounded=0;whiteSpace=wrap;html=1;" vertex="1" parent="1">
          <mxGeometry x="240" y="317" width="190" height="90" as="geometry" />
        </mxCell>
        <mxCell id="4M073sMEAIMgYrIw7gIp-27" value="248" style="text;html=1;strokeColor=none;fillColor=none;align=center;verticalAlign=middle;whiteSpace=wrap;rounded=0;fontSize=20;" vertex="1" parent="1">
          <mxGeometry x="400" y="757" width="60" height="30" as="geometry" />
        </mxCell>
        <mxCell id="4M073sMEAIMgYrIw7gIp-34" value="870" style="text;html=1;strokeColor=none;fillColor=none;align=center;verticalAlign=middle;whiteSpace=wrap;rounded=0;fontSize=20;" vertex="1" parent="1">
          <mxGeometry x="910" y="757" width="60" height="30" as="geometry" />
        </mxCell>
        <mxCell id="4M073sMEAIMgYrIw7gIp-36" value="" style="endArrow=none;html=1;rounded=0;exitX=0.5;exitY=0;exitDx=0;exitDy=0;" edge="1" parent="1">
          <mxGeometry width="50" height="50" relative="1" as="geometry">
            <mxPoint x="430" y="757" as="sourcePoint" />
            <mxPoint x="430" y="737" as="targetPoint" />
          </mxGeometry>
        </mxCell>
        <mxCell id="4M073sMEAIMgYrIw7gIp-43" value="" style="endArrow=none;html=1;rounded=0;exitX=0.5;exitY=0;exitDx=0;exitDy=0;" edge="1" parent="1">
          <mxGeometry width="50" height="50" relative="1" as="geometry">
            <mxPoint x="939.9999999999999" y="757" as="sourcePoint" />
            <mxPoint x="939.9999999999999" y="737" as="targetPoint" />
          </mxGeometry>
        </mxCell>
        <mxCell id="4M073sMEAIMgYrIw7gIp-45" value="971" style="text;html=1;strokeColor=none;fillColor=none;align=center;verticalAlign=middle;whiteSpace=wrap;rounded=0;fontSize=20;" vertex="1" parent="1">
          <mxGeometry x="990" y="757" width="60" height="30" as="geometry" />
        </mxCell>
        <mxCell id="4M073sMEAIMgYrIw7gIp-49" value="&lt;font style=&quot;font-size: 24px;&quot;&gt;ФТД&lt;br&gt;12440 руб.&lt;br&gt;&lt;/font&gt;" style="rounded=0;whiteSpace=wrap;html=1;" vertex="1" parent="1">
          <mxGeometry x="430" y="457" width="510" height="90" as="geometry" />
        </mxCell>
        <mxCell id="4M073sMEAIMgYrIw7gIp-50" value="" style="endArrow=none;dashed=1;html=1;rounded=0;exitX=1;exitY=1;exitDx=0;exitDy=0;" edge="1" parent="1" source="4M073sMEAIMgYrIw7gIp-25">
          <mxGeometry width="50" height="50" relative="1" as="geometry">
            <mxPoint x="610" y="560" as="sourcePoint" />
            <mxPoint x="430" y="750" as="targetPoint" />
          </mxGeometry>
        </mxCell>
        <mxCell id="4M073sMEAIMgYrIw7gIp-51" value="" style="endArrow=none;dashed=1;html=1;rounded=0;exitX=1;exitY=1;exitDx=0;exitDy=0;" edge="1" parent="1">
          <mxGeometry width="50" height="50" relative="1" as="geometry">
            <mxPoint x="940" y="547" as="sourcePoint" />
            <mxPoint x="940" y="750" as="targetPoint" />
          </mxGeometry>
        </mxCell>
        <mxCell id="4M073sMEAIMgYrIw7gIp-52" value="&lt;font style=&quot;font-size: 24px;&quot;&gt;ФАД&lt;br&gt;20244 руб.&lt;br&gt;&lt;/font&gt;" style="rounded=0;whiteSpace=wrap;html=1;" vertex="1" parent="1">
          <mxGeometry x="430" y="597" width="590" height="90" as="geometry" />
        </mxCell>
        <mxCell id="4M073sMEAIMgYrIw7gIp-53" value="" style="endArrow=none;dashed=1;html=1;rounded=0;exitX=1;exitY=1;exitDx=0;exitDy=0;" edge="1" parent="1" source="4M073sMEAIMgYrIw7gIp-52">
          <mxGeometry width="50" height="50" relative="1" as="geometry">
            <mxPoint x="1090" y="510" as="sourcePoint" />
            <mxPoint x="1020" y="750" as="targetPoint" />
          </mxGeometry>
        </mxCell>
        <mxCell id="4M073sMEAIMgYrIw7gIp-54" value="" style="endArrow=none;html=1;rounded=0;exitX=0.5;exitY=0;exitDx=0;exitDy=0;" edge="1" parent="1">
          <mxGeometry width="50" height="50" relative="1" as="geometry">
            <mxPoint x="1020" y="757" as="sourcePoint" />
            <mxPoint x="1020" y="737" as="targetPoint" />
          </mxGeometry>
        </mxCell>
      </root>
    </mxGraphModel>
  </diagram>
</mxfile>
